<svg id="Layer_1" data-name="Layer 1" xmlns="http://www.w3.org/2000/svg" viewBox="0 0 913.5 260.61"><defs><style>.cls-1{fill:#a12731;}</style></defs><title>bg-exm</title><path class="cls-1" d="M0,249.4s34.6-10.5,46.4,0,49.7-2.3,49.7-2.3,32.4-12,48.6,2.1,45-2.6,45-2.6c-4,4,24.2-9.3,65.1,1.8,35.5,9.6,94,1,94,1s50.8-14.5,70.2-2,51.8,0,51.8,0,32.4-19,70.2,0,75.8,3.1,75.8,3.1,27.8-15,67.8,3,76.7-4.1,76.7-4.1,34.6-8.4,51.8,3,47.5-3,47.5-3,38.1-1.2,45.3,5.3,7.6-243.1,7.6-243.1-18-8-45,1.7-60.9,9.1-60.9,9.1S787.5,4.7,754,18.7s-42,11.4-42,11.4-29-25.3-64.7-9.3S583.2,23,583.2,23s-22.7-11.2-54,0-50.8-5-50.8-5S462.2-.3,399.6,18c0,0-14,4.3-64.8-8.1s-67-9.7-67-9.7-46.4,21.3-71.3,5.1S122,24.4,122,24.4,96.1,24,71.2,5.9,0,19.1,0,19.1Z" transform="translate(0 0.05)"/></svg>