<svg id="Layer_1" data-name="Layer 1" xmlns="http://www.w3.org/2000/svg" viewBox="0 0 913.68 260.55"><defs><style>.cls-1{fill:#43935b;}</style></defs><title>bg-wh</title><path class="cls-1" d="M0,249.37s34.56-10.54,46.44,0S96.08,247,96.08,247s32.4-12,48.6,2.07,45-2.55,45-2.55c-4,4,24.18-9.25,65.1,1.78,35.47,9.56,94,1,94,1s50.75-14.48,70.19-2,51.84,0,51.84,0,32.4-19,70.2,0,75.84,3.09,75.84,3.09,27.83-15,67.79,3,76.68-4.07,76.68-4.07,34.55-8.45,51.83,3,47.52-3,47.52-3,38.07-1.19,45.28,5.29,7.64-243.13,7.64-243.13-18-8-45,1.72-60.88,9.08-60.88,9.08-20.12-17.72-53.6-3.68-42,11.41-42,11.41S683,4.85,647.28,20.81,583.17,23,583.17,23s-22.67-11.17-54,0-50.76-5-50.76-5-16.2-18.3-78.84,0c0,0-14,4.31-64.79-8.13s-67-9.68-67-9.68S221.34,21.48,196.5,5.28,122,24.43,122,24.43,96.07,24,71.23,5.87,0,19.09,0,19.09Z" transform="translate(0.04 0.06)"/></svg>