<svg id="Layer_1" data-name="Layer 1" xmlns="http://www.w3.org/2000/svg" viewBox="0 0 913.63 255.23"><defs><style>.cls-1{fill:#00a0ef;}</style></defs><title>Untitled-4</title><path class="cls-1" d="M-102.52,212.28s34.56-10.54,46.44,0,49.68-2.34,49.68-2.34S26,198,42.2,212s45.05-2.55,45.05-2.55c-4,4,24.18-9.24,65.1,1.78,35.47,9.56,94,1,94,1s50.75-14.48,70.19-2,51.84,0,51.84,0,32.4-19,70.2,0,75.84,3.09,75.84,3.09,27.83-15,67.79,2.95,76.68-4.07,76.68-4.07,34.55-8.45,51.83,3,47.52-3,47.52-3,38.07-1.19,45.28,5.29,7.64-243.13,7.64-243.13-18-8-45,1.72-60.88,9.08-60.88,9.08-20.12-17.72-53.6-3.68S609.71-7,609.71-7s-29.31-25.22-65-9.26S480.65-14,480.65-14s-22.67-11.18-54,0-50.76-5-50.76-5-16.2-18.3-78.84,0c0,0-14,4.32-64.79-8.13S170-23.4,170-23.4c-17-11.67-60.11,5.1-72.36,0-27.37-11.41-91.8,4.32-91.8,4.32,2.81-5.58-18.82-.27-49.68-6.48C-74-31.63-102.52-18-102.52-18Z" transform="translate(102.52 31.85)"/></svg>